<svg xmlns="http://www.w3.org/2000/svg" viewBox="0 0 1200 800">
  <defs>
    <linearGradient id="ice" x1="0" x2="1" y1="0" y2="1">
      <stop offset="0" stop-color="#e0f2fe"/>
      <stop offset=".55" stop-color="#ffffff"/>
      <stop offset="1" stop-color="#bae6fd"/>
    </linearGradient>
    <linearGradient id="stick" x1="0" x2="1">
      <stop offset="0" stop-color="#0f172a"/>
      <stop offset="1" stop-color="#0369a1"/>
    </linearGradient>
    <filter id="shadow" x="-20%" y="-20%" width="140%" height="140%">
      <feDropShadow dx="0" dy="22" stdDeviation="22" flood-color="#0f172a" flood-opacity=".25"/>
    </filter>
  </defs>
  <rect width="1200" height="800" rx="70" fill="url(#ice)"/>
  <g opacity=".55">
    <path d="M0 398h1200" stroke="#38bdf8" stroke-width="4"/>
    <path d="M600 0v800" stroke="#38bdf8" stroke-width="4"/>
    <circle cx="600" cy="400" r="150" fill="none" stroke="#38bdf8" stroke-width="5"/>
    <circle cx="210" cy="400" r="96" fill="none" stroke="#ef4444" stroke-width="5"/>
    <circle cx="990" cy="400" r="96" fill="none" stroke="#ef4444" stroke-width="5"/>
  </g>
  <g filter="url(#shadow)" transform="translate(90 88)">
    <path d="M170 520c210-130 360-220 590-410" stroke="url(#stick)" stroke-width="44" stroke-linecap="round"/>
    <path d="M740 110c60 104 118 180 238 210" fill="none" stroke="url(#stick)" stroke-width="44" stroke-linecap="round"/>
    <path d="M820 582c-56 30-150 20-210-24-38-28-42-78 5-101 76-37 230-4 280 52 29 33 2 61-75 73z" fill="#020617"/>
    <circle cx="500" cy="440" r="84" fill="#0ea5e9" opacity=".17"/>
    <circle cx="500" cy="440" r="42" fill="#020617"/>
    <path d="M110 600c204-64 378-82 650-84" stroke="#22c55e" stroke-width="12" stroke-linecap="round" opacity=".45"/>
  </g>
  <text x="80" y="115" font-family="Inter, Arial, sans-serif" font-size="44" font-weight="900" fill="#0f172a">Hockey Línea Madrid</text>
</svg>